<svg width="18" height="18" viewBox="0 0 18 18" fill="none" xmlns="http://www.w3.org/2000/svg">
<g clip-path="url(#clip0_841_38)">
<path d="M9 16.5C13.1421 16.5 16.5 13.1421 16.5 9C16.5 4.85786 13.1421 1.5 9 1.5C4.85786 1.5 1.5 4.85786 1.5 9C1.5 13.1421 4.85786 16.5 9 16.5Z" stroke="white" stroke-width="1.275" stroke-linecap="round" stroke-linejoin="round"/>
<path d="M6.8252 6.74995C7.01176 6.26368 7.36125 5.85719 7.81405 5.59982C8.26685 5.34245 8.79492 5.25013 9.30818 5.33863C9.82144 5.42712 10.2881 5.69094 10.6286 6.08508C10.9691 6.47922 11.1622 6.97928 11.1752 7.49995C11.1752 8.99995 8.92519 9.74995 8.92519 9.74995M9.0002 12.7499H9.0077" stroke="white" stroke-width="1.275" stroke-linecap="round" stroke-linejoin="round"/>
</g>
<defs>
<clipPath id="clip0_841_38">
<rect width="18" height="18" fill="white"/>
</clipPath>
</defs>
</svg>
