<svg width="18" height="18" viewBox="0 0 18 18" fill="none" xmlns="http://www.w3.org/2000/svg">
<path d="M15.7499 9.6C15.6304 10.8758 15.1502 12.0912 14.3655 13.1042C13.5808 14.1173 12.524 14.886 11.3185 15.3205C10.1131 15.7551 8.80885 15.8376 7.55826 15.5583C6.30767 15.2791 5.1624 14.6496 4.25633 13.7436C3.35025 12.8375 2.7208 11.6922 2.44154 10.4416C2.16229 9.19104 2.24477 7.8868 2.67934 6.68136C3.11392 5.47591 3.88264 4.41907 4.89564 3.63436C5.90865 2.84964 7.12408 2.36948 8.39989 2.25C7.64164 3.261 7.27351 4.51159 7.3631 5.77217C7.45268 7.03274 7.99397 8.2187 8.88758 9.11231C9.78119 10.0059 10.9671 10.5472 12.2277 10.6368C13.4883 10.7264 14.7389 10.3583 15.7499 9.6Z" stroke="#3A3357" stroke-width="1.35" stroke-linecap="round" stroke-linejoin="round"/>
</svg>
