<svg width="24" height="24" viewBox="0 0 24 24" fill="none" xmlns="http://www.w3.org/2000/svg">
<g clip-path="url(#clip0_283_87)">
<path d="M14 16V5H1V16H14ZM14 16H21V12L18 9H14M5 19C4.47406 19.0132 3.97449 19.233 3.60952 19.6119C3.24455 19.9908 3.04358 20.4983 3.05016 21.0244C3.05673 21.5504 3.27033 22.0527 3.64465 22.4224C4.01898 22.7921 4.5239 22.9994 5.05 22.9994C5.5761 22.9994 6.08102 22.7921 6.45535 22.4224C6.82967 22.0527 7.04327 21.5504 7.04984 21.0244C7.05642 20.4983 6.85545 19.9908 6.49048 19.6119C6.12551 19.233 5.62594 19.0132 5.1 19M17 19C16.4741 19.0132 15.9745 19.233 15.6095 19.6119C15.2445 19.9908 15.0436 20.4983 15.0502 21.0244C15.0567 21.5504 15.2703 22.0527 15.6447 22.4224C16.019 22.7921 16.5239 22.9994 17.05 22.9994C17.5761 22.9994 18.081 22.7921 18.4553 22.4224C18.8297 22.0527 19.0433 21.5504 19.0498 21.0244C19.0564 20.4983 18.8555 19.9908 18.4905 19.6119C18.1255 19.233 17.6259 19.0132 17.1 19" stroke="#1D63C9" stroke-width="1.7" stroke-linecap="round" stroke-linejoin="round"/>
</g>
<defs>
<clipPath id="clip0_283_87">
<rect width="24" height="24" fill="white"/>
</clipPath>
</defs>
</svg>
