<svg width="18" height="18" viewBox="0 0 18 18" fill="none" xmlns="http://www.w3.org/2000/svg">
<path d="M10.5 11.07V3.75C10.5 3.35218 10.342 2.97064 10.0607 2.68934C9.77936 2.40804 9.39783 2.25 9 2.25C8.60218 2.25 8.22065 2.40804 7.93934 2.68934C7.65804 2.97064 7.5 3.35218 7.5 3.75V11.07C6.92808 11.4002 6.48109 11.9099 6.22836 12.52C5.97564 13.1302 5.9313 13.8066 6.10222 14.4445C6.27315 15.0824 6.64978 15.6461 7.17372 16.0481C7.69765 16.4502 8.3396 16.6681 9 16.6681C9.6604 16.6681 10.3024 16.4502 10.8263 16.0481C11.3502 15.6461 11.7269 15.0824 11.8978 14.4445C12.0687 13.8066 12.0244 13.1302 11.7716 12.52C11.5189 11.9099 11.0719 11.4002 10.5 11.07Z" stroke="white" stroke-width="1.275" stroke-linecap="round" stroke-linejoin="round"/>
</svg>
