<svg width="925" height="900" viewBox="0 0 925 900" fill="none" xmlns="http://www.w3.org/2000/svg">
<path d="M356.388 161.827L358.379 162.866L360.629 163.558L362.965 162.779L365.215 163.471L365.994 166.673L365.735 169.356L367.725 170.914L367.033 174.116L368.763 175.846L368.677 178.789L366.946 180.952L366.686 183.721H369.456L372.398 182.856L374.475 181.644L376.811 182.769L377.244 185.798L374.994 186.75L373.436 188.827L372.311 191.164L373.783 193.587L373.004 196.269L371.273 198L369.283 199.471L367.033 199.904L365.042 201.894L362.879 203.106L361.235 205.183L358.811 203.885L358.206 201.202L355.523 201.116L353.965 199.039L351.975 200.596L349.811 201.635L348.167 203.625L345.744 204.144L344.186 201.894L342.283 203.625L339.946 202.587L338.561 200.337L337.35 197.568L336.485 195.058L334.408 196.702L332.158 197.914L329.994 197.654L329.388 194.971L330.513 192.635L331.119 189.779L330.081 187.356L327.744 187.01L325.408 186.491L323.244 185.539L324.542 183.202L326.36 180.866L327.138 178.269L329.735 178.616L331.638 180.087L333.802 181.818L336.225 181.471L337.869 179.568L340.206 179.481L340.638 176.712L341.417 174.116L341.936 171.26L344.013 170.135L346.004 168.577L348.081 170.221L348.254 173.077L350.504 172.558L351.369 169.875L352.494 167.366L353.1 164.596L354.744 162.346L356.388 161.827Z" fill="#2563EB" fill-opacity="0.1" stroke="#2563EB" stroke-opacity="0.42" stroke-width="0.865383" stroke-linejoin="round"/>
<path d="M608.127 586.989L607.348 583.96L607.088 581.277L607.781 578.162L606.31 580.412L604.665 583.095L604.579 580.152L605.531 577.729L604.319 580.152L602.156 580.931L599.906 582.316L600.338 579.287L600.944 576.604L599.04 578.075L598.781 580.758L596.617 582.056L594.194 581.71L592.031 580.931L590.127 579.46L592.81 577.989L592.377 575.306L589.867 573.835L588.05 572.277L586.752 570.027L589.088 569.422L591.338 569.854L593.329 568.729L595.925 568.124L596.704 570.72L597.396 568.124L597.656 565.268L596.617 562.672L598.348 560.941L601.031 560.508L603.627 559.989L605.617 558.518L607.781 558.864L610.031 558.518L612.713 557.479L614.271 554.277L615.396 551.595L617.387 550.556L619.637 550.989L621.021 547.7H623.704L625.781 546.316L627.944 545.624L628.896 543.027L629.848 540.258L630.454 537.402L632.617 536.537L634.781 537.922L637.117 538.008L639.021 536.364L638.675 533.508L640.925 533.941L643.348 533.854L645.598 533.595L647.935 532.902L649.406 535.325L649.925 538.008L651.05 540.604L652.954 542.075L651.31 543.979L649.146 543.027L647.242 545.45L647.329 548.22L646.637 550.816L644.733 552.46L646.377 554.883L645.165 557.306L644.04 559.989L643.348 563.191L642.05 565.527L639.887 566.047L638.935 568.729L637.031 570.2L634.867 569.508L632.704 569.941L630.454 569.162L628.637 570.806L627.771 573.402L629.588 575.22L629.848 577.902L628.031 579.72L625.867 579.979L623.185 578.422L622.838 575.479L620.502 575.912L619.29 578.162L617.213 579.547L616.608 582.749L615.569 585.864L614.185 583.7L612.713 581.623L612.8 584.739L613.752 587.248L611.415 585.431L609.685 587.248L608.992 589.845L608.127 587.248V586.989Z" fill="#2563EB" fill-opacity="0.1" stroke="#2563EB" stroke-opacity="0.42" stroke-width="0.865383" stroke-linejoin="round"/>
<path d="M573.944 432.086L575.935 433.124L578.012 434.163L578.444 436.932L580.348 438.749L579.483 441.432L579.742 444.288L580.002 447.144L581.906 448.701L582.252 452.076L582.165 455.019L581.04 457.442L578.964 458.394L577.579 460.471L575.762 462.115L576.454 465.144L574.81 466.874L572.127 468.259L572.733 470.942L573.771 473.451L573.165 476.134L572.213 478.73L570.05 479.596L567.54 480.894L565.464 481.586L563.213 481.153L562.867 478.297L560.877 476.74L558.367 476.826L556.377 477.951L554.387 479.336L552.223 480.547L552.915 483.49L551.271 485.74L549.627 487.644L549.367 490.672L547.117 492.922L544.694 492.836H542.358L540.281 493.874L538.117 495.172L535.954 496.038L533.877 497.076L534.829 494.567L535.435 491.451L533.271 489.288L530.588 486.605L529.377 484.182L529.81 481.413L532.146 482.105L534.396 482.538L536.992 483.403L539.589 481.932L539.848 479.163L537.858 477.173L535.348 475.615L533.617 473.797L534.31 471.028L535.608 468.605L536.992 466.269L540.8 465.144L543.483 465.749L545.56 464.711L545.992 461.855L544.088 460.298L541.925 459.172L539.502 458.74L536.906 458.307H534.05L533.617 455.624L534.742 452.596L536.387 450.519L537.685 448.009L539.156 445.846L541.319 444.98L543.569 444.201L545.387 446.105L544.348 448.874L545.127 451.471L547.377 451.211L549.367 449.653L551.185 448.009L552.483 445.759L552.829 442.817L552.31 440.047L554.473 439.528L556.81 438.922L558.973 438.057L561.223 436.932L562.954 434.942L564.858 433.297L567.194 432.865L569.79 432.951L572.646 432.259L573.944 432.086Z" fill="#2563EB" fill-opacity="0.1" stroke="#2563EB" stroke-opacity="0.42" stroke-width="0.865383" stroke-linejoin="round"/>
<path d="M308.705 171.779L310.869 172.385L313.032 174.289L315.022 175.846L316.58 177.837L318.917 179.221L320.994 180.779L323.157 179.914L325.407 180.606L324.542 183.202L322.984 185.798L322.292 188.394L322.032 191.337L319.869 192.462L320.042 195.75L322.205 197.567L324.369 198.433L324.974 201.116L323.59 203.539L322.119 205.789L320.907 208.644L319.263 210.462L317.272 212.712L314.417 212.452L312.513 214.442L310.349 217.125L308.359 218.423L305.676 219.289L303.426 219.029H300.83L303.513 217.125H306.542L304.378 217.212L306.542 218.337L308.532 216.952L306.369 215.308L304.292 213.75L302.82 211.673L302.734 207.952L304.984 205.616L302.82 205.096L303.167 202.327L300.744 203.798V201.029L303.08 199.904L300.917 198.692L302.301 196.096L304.465 195.144L306.542 196.529L306.628 193.5L304.465 194.452L302.128 194.539L301.869 191.683V188.827L301.09 186.058L300.051 183.635L299.013 181.039L301.263 178.442L303.34 176.798L305.503 175.673L306.974 173.337L308.705 171.779ZM280.58 141.75L282.051 143.827L284.301 145.385L286.638 147.202L288.888 148.154L290.186 150.491L291.051 153.433L290.965 156.375L290.099 159.058L291.657 161.221L290.965 164.683L291.917 167.192L292.003 170.135L292.869 172.991L291.484 176.019L290.965 178.702L288.715 178.269L286.465 177.404L284.042 178.529L281.619 178.702L278.33 178.875L275.994 178.789L274.003 177.404L272.099 175.846L272.186 173.077L273.917 171.433L276.08 170.741L276.599 167.798L275.388 165.029L274.436 162.519L272.186 161.741L269.763 160.789L269.503 158.019L269.33 155.25L269.676 152.567L269.503 149.625L269.849 146.769L271.84 145.385L273.917 144.346L275.388 141.923L277.638 142.096L279.715 140.885L280.58 141.75Z" fill="#2563EB" fill-opacity="0.1" stroke="#2563EB" stroke-opacity="0.42" stroke-width="0.865383" stroke-linejoin="round"/>
<path d="M322.724 553.845L321.686 556.354L324.195 557.998L326.532 559.383L328.868 559.556L330.686 557.912L333.282 556.96L335.445 556.268L337.436 554.796L340.118 554.537L342.368 553.585L344.532 554.796L345.83 557.133L346.868 559.643L348.339 562.152L348.945 565.354L351.109 565.527L353.445 564.748L355.609 566.912L354.916 569.508L354.657 572.537L354.051 575.479L352.061 577.383L350.849 580.239L348.686 581.018L347.301 583.268L344.964 583.095L343.407 580.498L341.243 581.883L338.993 582.229L336.83 583.095L334.666 582.575L333.109 584.566L330.859 585.085L328.955 586.47L326.964 585.345L324.887 586.296L322.984 584.652L323.07 581.97L321.426 579.806L319.522 577.816L317.099 577.643L314.849 576.95L312.599 577.037L310.522 578.248L308.705 576.604L308.618 573.575L308.186 570.806L308.964 568.296L309.484 565.354L311.561 564.056L312.512 561.373L314.849 561.72L317.099 560.335L317.791 557.393L319.089 554.97L321.166 553.845H322.724Z" fill="#2563EB" fill-opacity="0.1" stroke="#2563EB" stroke-opacity="0.42" stroke-width="0.865383" stroke-linejoin="round"/>
<path d="M405.37 356.105L405.716 358.788L406.409 361.557L408.659 361.384L410.909 361.99H413.072L414.024 359.307L416.014 358.009L415.582 360.692L417.659 361.73L417.226 364.586L418.091 367.269L420.341 366.749L423.024 367.269L424.755 369.086L423.197 371.249L421.726 373.24L421.639 376.269L420.514 378.605L418.61 379.99L418.437 383.105L418.178 386.134L418.264 388.99L417.226 391.499L416.88 394.182L417.139 396.951L415.149 398.422L413.332 400.413L412.034 402.663H409.87L407.534 401.019L406.062 398.769L404.159 397.124L403.726 394.355L403.38 391.586L400.87 391.326L400.784 394.182L400.524 396.951L400.264 399.807L398.534 401.797L397.062 405.172L396.803 402.403L395.245 400.413L393.514 398.422L390.659 396.951L389.793 394.096L391.437 392.192L389.187 391.413L387.11 390.288L385.553 387.865L387.37 386.221L387.197 383.451L388.149 380.855L389.534 378.692V375.403L389.62 372.547L390.053 369.605L391.87 367.182L394.293 366.663L396.63 366.317L398.101 363.894L400.091 361.384L400.784 358.442L401.649 355.932L403.553 354.461L405.37 356.105Z" fill="#2563EB" fill-opacity="0.1" stroke="#2563EB" stroke-opacity="0.42" stroke-width="0.865383" stroke-linejoin="round"/>
<path d="M634.176 480.114H636.426H639.023L641.878 480.46L643.782 482.018L646.032 482.364L647.503 484.96L646.811 487.643L647.936 490.152L650.186 490.498L652.523 491.018L654.08 489.114L656.33 488.422L658.407 486.864L660.657 486.085L662.907 487.383L665.244 487.902L667.926 489.114L670.003 490.325L670.696 493.527L672.08 495.691L673.551 497.681L673.638 500.45L672.253 502.873L673.032 505.47L672.426 508.066L670.436 510.229L671.388 512.912L669.744 514.816L669.657 517.931L667.407 518.104L665.849 514.816L664.551 511.787L663.167 509.537L663.599 512.479L661.869 514.643L663.686 516.46L662.907 519.316L661.003 520.787L658.84 519.748L657.369 517.672L658.58 520.527L659.186 523.21L661.436 523.037L661.955 525.806L659.446 526.498L660.224 529.095L659.619 531.777L658.234 533.941L659.532 536.191L658.321 538.527L656.071 539.306L654.426 541.21L651.398 540.95L650.359 538.441L649.494 535.672L648.023 533.422L645.773 533.508L643.523 533.854L640.926 533.941L640.58 530.912L641.099 528.229L639.542 526.325L637.378 525.287L635.215 525.72L633.311 524.248L631.407 522.691L629.244 520.614L628.032 518.277L627.253 515.681L625.09 514.989L622.753 513.864L620.244 512.479L620.676 509.623L618.513 510.402L616.09 510.922L613.667 510.143L612.715 507.46L610.465 506.508L611.763 504.258L613.84 502.7L615.917 501.316L616.609 498.72L615.571 496.123L616.003 493.268L618.253 493.441L619.378 490.845L621.628 491.277L623.878 491.797L622.321 489.373L622.667 486.604L623.446 483.835L625.349 482.277L627.773 481.498L629.936 480.46L631.753 478.902L634.003 479.854L634.176 480.114Z" fill="#2563EB" fill-opacity="0.1" stroke="#2563EB" stroke-opacity="0.42" stroke-width="0.865383" stroke-linejoin="round"/>
<path d="M375.861 317.335L378.025 317.768L380.102 318.893L382.265 319.758L384.255 321.057L385.813 322.96L387.977 323.48L390.4 323.739L392.736 324.518L393.169 327.46L391.092 328.758L390.14 331.355L391.352 333.778L392.563 336.114L393.169 338.797L394.553 340.96L396.544 342.345L398.621 343.989H400.957L402.775 345.807L404.505 347.884L406.496 349.874L406.582 352.73L405.544 355.412L403.38 354.287L401.477 356.018L400.525 358.96L399.746 362.335L397.755 364.672L395.938 366.835L393.342 366.403L391.352 367.787L388.928 367.96L386.938 369.085L385.034 367.614L382.784 366.835L381.227 364.759L379.669 362.508L379.582 359.653L378.717 356.883L376.64 355.585L375.688 352.989L377.159 350.912L375.948 348.576L377.765 347.018L378.544 344.162L380.275 342.345L378.111 340.441L376.121 338.97L374.044 337.239L373.438 334.643L373.871 331.874L374.303 329.105L374.477 326.162L374.303 323.393L371.88 323.826L371.102 321.316L372.746 319.066L374.217 316.989L375.861 317.335Z" fill="#2563EB" fill-opacity="0.1" stroke="#2563EB" stroke-opacity="0.42" stroke-width="0.865383" stroke-linejoin="round"/>
<path d="M320.042 268.009L321.513 265.499L318.83 262.297L315.369 258.922L313.465 257.105L311.82 255.201L311.647 252.432L309.311 251.999L311.474 251.134L313.811 249.663L311.474 248.711L309.051 249.403L308.705 245.596L310.436 243.865L308.272 244.817L308.792 241.442L309.397 238.672L308.359 236.076L307.58 233.394L308.532 230.971L305.763 228.115L307.926 228.98L305.936 227.682L308.532 227.076L309.657 229.499L311.907 228.894L311.388 231.922L313.984 232.182L316.147 232.961L318.57 233.74L320.907 233.307L322.984 234.432L324.628 236.336L326.099 233.999L326.272 231.23H328.522L328.176 228.461L330.253 227.769L331.897 229.672L330.426 227.596L328.263 226.038L326.099 226.99L323.244 227.163L320.301 226.124L317.272 224.999L314.936 224.047L312.686 222.749L310.782 221.365L308.445 222.057L305.157 223.269L302.907 224.134L300.744 225.692L298.667 227.076L301.695 228.547L303.686 231.057L305.936 230.797L306.282 233.48L307.753 236.509L308.619 239.278L308.359 242.047L307.061 239.711L304.897 241.615V238.846L303.253 236.682L301.003 237.028L302.734 238.672L301.522 241.528L301.695 238.586L298.407 238.672L297.369 241.269L295.032 241.528L295.378 238.413L297.022 236.163L296.676 233.134L295.465 230.451L293.647 228.807L295.897 228.721L298.061 228.028L301.349 225.086L303.34 223.615L307.753 222.23L312.686 220.499L313.984 218.076L315.542 215.913L317.186 213.749L319.09 212.278L320.907 210.288L323.59 210.894L325.926 210.807L323.157 210.721L321.08 209.769L321.599 207.086L323.503 205.528L323.763 202.499L324.715 199.99L323.157 197.999L321.34 196.355L320.128 194.019L321.253 191.336L322.292 188.394L322.984 185.797L325.407 186.49L327.397 187.874L329.647 187.355L331.205 189.605L331.032 192.461L329.301 194.365L329.994 197.047L332.157 197.913L334.234 196.788L336.138 195.057L337.349 197.567L338.561 199.903L339.945 202.153L341.157 204.49L343.147 203.278L345.397 203.451L347.82 203.711L349.638 201.98L351.801 200.682L353.705 199.124L355.349 201.115L357.34 199.557L358.378 201.98L359.417 204.576L362.013 205.269L363.57 203.192L365.647 200.942L367.984 199.99L370.32 199.038L372.224 197.48L373.955 195.663L372.83 193.24L372.397 190.384L373.782 187.874L375.772 186.576L377.157 184.326L376.292 181.471L373.869 182.163L371.359 182.855L368.763 184.326L366.945 182.596L367.811 179.826L368.849 177.057L367.984 174.461V171.692L365.82 170.653L365.734 167.624L365.561 164.769L364.003 162.432L361.753 162.605L359.33 163.038L357.253 161.913L355.09 162.172L353.099 164.596L352.58 167.278L350.936 169.182L351.455 171.951L349.205 172.903L348.08 170.221L346.003 168.49L344.013 170.134L341.59 170.221L341.676 173.163L340.638 175.759L340.551 178.788L338.301 179.134L337.003 181.297L334.753 181.99L332.33 180.605L330.34 179.221L327.83 177.057L327.57 179.74L325.407 180.605L323.33 179.74L321.253 181.038L319.609 178.961L317.359 178.528L315.109 177.403L313.811 174.547L311.82 173.076L309.657 171.951L307.667 173.336L305.849 174.807L304.811 177.403L302.388 177.576L300.397 178.961L298.667 177.057L296.417 177.576L295.465 174.634L294.426 172.038L293.128 169.788L293.647 167.105L292.782 164.336L292.695 161.48L291.311 159.144L292.176 155.855L291.917 152.826L290.705 150.403L291.484 147.288L295.292 149.192L297.282 150.836L300.657 151.961L303.253 150.403L305.676 148.759L308.359 148.846L310.003 146.855L310.349 143.913L310.782 141.057L309.311 138.894L311.561 138.634L312.772 136.124L310.955 134.48L310.782 131.797L311.474 128.942L310.09 126.692L310.522 124.009L310.695 121.153L313.378 119.509L315.195 117.605L317.013 119.249L319.263 119.076L320.907 117.086L323.07 116.221L325.32 116.567L326.186 113.797L328.955 113.711L330.426 111.201L332.417 108.865L334.667 108.519L334.32 105.144L336.051 102.721L335.445 99.9513L335.186 97.1821L337.263 95.4513L339.08 92.9417L341.07 91.4705L343.32 92.2494H345.57L347.734 92.0763L349.465 90.1725L347.647 88.5282L349.032 86.1917L348.945 83.3359L350.157 80.8263L350.936 78.1436L353.186 77.4513L355.09 75.9802L356.907 74.1629L358.897 72.0859L361.061 71.5667L363.138 70.0956L365.474 68.7109L367.465 70.009L367.811 73.0379L368.503 75.7206L371.013 76.1532L373.09 74.7686L374.388 76.9321L375.772 79.3552L376.205 82.8167L378.022 84.5475V87.3167L379.84 88.9609L381.917 91.2109L383.994 89.9994L385.724 87.9225L387.542 86.3648L389.186 84.5475L391.609 85.2398L390.83 87.7494L390.138 90.6052L389.359 93.2879L391.349 95.1917L393.513 94.5859L394.551 97.1821L396.455 98.7398L398.359 97.1821L400.869 96.4032L402.686 94.6725L405.022 95.3648L407.186 97.2686L409.003 95.5379L410.907 97.009L411.34 99.6917L411.513 102.894L412.292 105.922L412.638 108.951L413.503 111.547L415.84 112.586L418.176 113.019L421.897 113.451L424.147 115.096L424.234 117.778L426.051 119.596H428.388L430.638 120.461L432.282 122.624L433.667 125.134V128.076L432.542 131.192L431.849 133.788L429.513 133.528L427.522 134.826L425.965 136.73L423.715 138.288L421.811 140.451L423.022 142.874L421.984 145.73L422.417 148.672L424.061 151.009L422.936 153.951L420.686 155.336L419.301 157.932L421.724 157.499L423.974 158.624L426.138 157.153L426.051 160.615L425.186 163.297L424.84 166.846L424.147 169.528L424.753 172.297L427.003 172.471L429.253 172.211L431.33 170.307H433.58L435.57 171.519L437.561 172.817L439.638 173.942L441.455 175.932L443.359 177.576L445.09 179.653L447.513 179.307L449.763 179.826L452.013 179.913L454.609 181.038L456.772 180.259L458.503 181.99L460.84 184.153L463.09 185.105L462.484 187.701L460.234 187.788L458.157 188.999L456.34 190.644L454.436 192.547L452.272 193.326L454.176 195.23L455.994 197.74L457.032 200.336L457.292 203.105L456.859 205.874L456.08 208.73L455.215 211.326L454.695 214.615L452.445 214.788L452.099 217.644L452.619 220.413L452.878 223.528L451.84 226.038L451.667 228.894L452.272 231.576L450.974 234.259L450.628 237.374L449.763 240.057L448.724 242.567L447.426 244.99L445.609 246.634L444.657 249.317L443.619 251.74L441.195 252.259L438.859 251.307L436.609 249.663L436.176 252.432L435.917 255.201V258.057L434.013 259.615L431.763 260.047L432.022 262.817L429.859 262.211L427.695 263.249L427.349 266.019L424.753 266.624L422.763 265.499L420.599 264.807L418.436 266.451L416.359 265.499L414.022 266.192L413.07 268.701L411.772 271.471L410.042 273.288L407.878 273.807L405.109 274.326L403.551 276.576L405.195 278.567L403.551 280.471L401.734 282.115L399.484 281.682L397.234 283.413L395.07 284.451L392.474 285.403L392.647 288.259L391.263 290.509L389.272 288.865L387.109 287.567L384.686 287.047L382.176 285.317L380.272 283.24L378.455 281.769L376.638 280.124L374.128 279.865L371.359 279.172L369.109 278.826L366.945 279.692L366.253 282.288L363.657 283.326L361.234 284.019L358.897 284.884L356.388 285.23L353.965 284.538L351.628 284.971L348.945 286.355L345.657 287.394L342.628 289.124L340.897 286.788L338.994 284.451L336.311 284.797L335.186 282.028L333.022 280.99L331.551 278.394L329.215 276.144L327.224 274.586L324.715 272.942L327.224 271.817L326.186 269.307H323.503H321.253L320.042 268.009Z" fill="#2563EB" fill-opacity="0.1" stroke="#2563EB" stroke-opacity="0.42" stroke-width="0.865383" stroke-linejoin="round"/>
<path d="M577.755 109.818L578.447 112.5L579.918 114.577L581.649 116.308L582.601 118.818L584.332 121.414L585.803 123.577L587.361 125.568L589.178 127.298L591.168 128.596L591.688 131.366L592.986 134.221L594.803 136.558L596.534 138.202L597.572 140.625L599.303 142.702L601.813 145.125L603.716 147.289L605.88 149.366L607.524 151.269L609.428 153.26L611.678 155.25L612.89 157.673L614.707 159.577L616.784 162.173L618.688 163.904L620.505 165.548L620.851 168.404L619.207 170.914L620.159 173.51L621.63 175.5L623.447 177.318L625.265 178.789L627.255 180.346L628.553 182.596L629.072 185.279L628.466 188.048L629.332 190.558L630.89 192.894L632.793 194.279L630.457 193.673L632.534 195.231L634.178 197.654L635.909 199.385L637.726 200.856L638.678 204.058L639.024 206.914L640.668 209.077L642.572 210.721L644.563 211.933L646.64 213.231L646.034 215.827L647.332 218.164L648.024 220.933L649.842 223.702L652.091 224.221L652.438 227.077L654.601 228.116L656.159 230.279L657.284 233.048L658.841 235.385L657.803 237.808L658.582 240.577L658.322 243.606L658.149 246.462L659.707 248.452L658.236 250.702L656.072 251.308L654.168 252.952L652.091 254.423L650.015 255.462L648.111 257.539L645.947 258.577L644.39 260.568L643.438 263.077L643.611 265.933L641.534 267.058L639.197 267.318L636.861 265.587L635.13 263.596L633.053 262.212L630.803 261L628.726 259.183L626.649 258.231L624.486 258.75L622.582 260.048L621.803 262.818H619.553L617.303 261.779L615.053 261.519L612.803 261H610.553L608.13 261.693L606.572 259.356L604.149 259.443L602.678 261.433L601.293 263.683L600.082 266.019L597.659 265.587L595.149 266.193L593.159 265.154L591.515 263.164L589.265 261.519L587.361 260.135L585.197 259.443L583.813 261.779L581.822 263.077L581.649 266.019L581.563 268.962L579.14 267.75L576.89 267.058L574.466 267.577L572.563 265.76L570.486 264.548L568.409 263.596L566.159 262.558L564.601 260.568L562.524 261.519H560.274L558.111 261.087L556.034 259.875L553.438 259.702L551.534 257.712L549.716 255.808L547.986 253.904L546.168 255.635L543.572 256.414L541.322 256.846L538.726 257.625L537.861 254.856L535.87 253.644L535.611 250.875L533.62 248.885L531.37 249.318L529.12 248.885L526.957 249.058L524.62 250.443L522.543 252.433L520.553 251.221L518.649 249.318L519.341 246.635H521.678L522.717 244.212L524.447 242.568L526.351 240.318L524.62 238.414L522.457 239.366L520.38 240.318L518.13 240.577L516.832 238.327L514.755 237.548L512.505 236.596L510.774 234.693L508.524 234.779L506.62 236.337L505.928 238.933L503.591 239.452L501.947 237.462L499.784 236.51L498.486 238.76L496.928 241.529L494.765 242.308L492.168 243L490.091 243.519L487.668 243.087L487.755 240.318L486.63 237.894L486.024 235.125L483.774 233.481L481.611 232.702L479.188 233.394L476.851 234.693L474.515 236.51L473.995 239.193L474.601 242.654L474.861 245.856L472.697 247.241L470.88 249.058L468.716 248.279L465.774 248.019L463.87 249.491L461.101 249.664L458.938 250.616L456.515 250.789L454.178 249.577L452.101 247.241L451.063 244.644L450.457 241.443L450.89 238.5L450.543 235.558L451.582 233.135L452.361 230.279L451.409 227.769L452.967 225.693L452.534 222.577L452.361 219.375L452.188 216.346L454.697 214.616L455.303 211.933L455.822 209.25L456.601 206.308L457.553 203.712L457.12 200.856L456.688 198.173L455.043 196.183L452.967 194.971L454.438 192.548L456.341 190.644L458.159 189L460.149 187.789L462.486 187.702L463.697 185.452L461.707 183.981L459.457 183.635L458.072 181.385L455.563 181.298L453.226 180.693L451.409 179.135L448.899 179.741L445.957 179.827L444.053 178.01L442.063 176.452L439.986 174.721L437.649 173.077L435.572 171.519L433.582 170.308H431.332L429.255 171.693L427.178 172.558H424.842L423.111 170.568L424.668 168.404L425.015 165.721L425.361 162.693L426.053 159.577L423.716 158.625L421.293 157.933L421.38 154.904L423.37 153.606L423.803 150.404L422.159 148.414L422.332 145.298L422.678 142.443L422.332 139.327L424.409 138.202L426.313 136.644L428.13 134.394L430.467 133.529L432.543 132.577L433.236 129.894V126.519L433.063 123.144L431.765 120.894L429.601 119.856L427.351 119.51L425.101 119.077L424.495 116.221L423.63 113.539L420.082 113.625L417.313 112.846L414.89 112.673L412.986 110.943L412.293 108.26L411.774 105.577L411.515 102.202L411.428 99.0002L410.736 96.1445L408.399 96.4906L406.236 97.0964L403.899 95.1925L401.563 96.1445L399.399 96.9233L397.495 98.2214L395.245 98.481L393.947 95.3656L391.351 95.1925L389.361 93.7214L389.88 90.7791L390.399 88.0964L391.957 85.9329L389.534 84.3752L387.803 86.106L385.726 87.9233L383.995 90.0002L382.005 91.2983L380.188 89.5675L378.284 88.0098L377.678 85.4137L376.38 82.9906L376.034 80.3079L374.217 78.4041L374.563 75.7214L371.966 75.5483L369.803 76.1541L367.813 74.856L367.553 71.7406L366.947 69.0579L367.899 66.2021L370.063 65.5964L371.62 62.9137L373.265 64.8175L376.38 63.8656L378.63 63.2598L380.793 62.3945L382.784 60.9233L384.947 60.1445L387.197 61.0964L389.707 61.4425L392.13 62.8271L394.38 62.481L396.717 62.2214L398.62 60.9233L401.13 61.0098L403.034 59.5387L405.37 60.1445L407.62 60.9233L410.216 62.3079L412.466 62.5675L415.149 62.8271L416.966 64.4714L419.043 65.3368L421.034 64.1252L423.024 62.8271L424.928 61.1829L427.178 60.5771L429.774 59.6252H432.63L434.361 61.5291L438.341 61.4425L440.678 61.7887L443.015 61.5291L444.745 59.7118L448.207 59.8848L450.37 58.6733L452.447 59.3656L454.524 58.3271L457.12 61.7887L459.197 63.5195L461.534 64.6445L463.611 63.4329L465.947 63.2598L468.197 63.8656L470.534 63.606L472.784 64.0387L475.034 64.5579L477.543 65.3368L479.88 67.1541L481.265 69.231L483.601 69.1445L485.418 67.4137L485.765 64.731L487.668 63.2598L489.832 64.3848L492.428 63.8656L494.851 62.6541L497.015 60.6637L499.611 60.3175L501.774 59.7983L503.851 58.6733L505.842 55.731L508.091 54.7791L510.082 53.3945L511.986 51.8368L513.457 49.6733L515.447 48.4618L516.745 46.2118L518.563 44.6541L520.466 43.0964L521.418 40.4137L522.717 37.2983L522.976 34.0098L524.188 31.4137L524.015 28.3848L524.101 24.4906L524.361 21.5483L523.668 18.5195L526.091 17.5675L527.822 15.9233L530.072 15.5771L531.543 18.4329L533.188 20.5098L535.091 22.7598L536.822 24.4041L536.649 27.1733L537.861 29.5964L538.207 32.3656L539.332 34.7887L540.716 37.2983L542.274 39.2021L544.178 41.4521L542.447 43.356L543.745 46.2118L545.217 48.4618L546.861 50.5387L548.938 53.1348L549.543 55.9906L550.582 58.6733L552.14 60.6637L553.091 63.0868L555.082 64.9041L554.736 67.6733L556.293 70.0964L557.332 73.6445L558.803 75.7214L560.188 78.1445L561.832 80.3079L559.668 81.5195L561.832 82.8175L562.784 85.7598L562.87 88.6156L563.649 91.3848L565.38 93.2887L566.678 95.6252L568.841 98.1348L570.572 100.125L571.351 102.894L572.822 104.971L574.899 107.308L576.976 109.212L577.755 109.818Z" fill="#2563EB" fill-opacity="0.1" stroke="#2563EB" stroke-opacity="0.42" stroke-width="0.865383" stroke-linejoin="round"/>
<path d="M393.859 318.375L395.763 316.818H398.013L396.888 314.394L399.311 313.529L401.388 312.404L403.638 312.664L405.369 314.741L407.1 313.01L406.407 310.327L405.023 307.818L404.417 305.135L402.081 303.664L400.004 302.625L398.013 301.327L397.234 298.471L395.157 296.914L393.859 294.664L392.388 291.808L392.302 289.039L391.869 285.491L394.206 285.144L396.456 284.106L398.273 282.202L401.561 282.116L403.465 280.558L405.715 279.26L404.071 277.269L404.504 274.587L406.927 274.068L409.263 273.721L411.254 272.164L413.157 270.433L412.984 267.664L414.456 265.5L416.706 265.327L419.042 266.366L420.859 264.721L422.936 265.76L425.273 266.885L427.436 266.452L427.696 263.25L429.773 262.125L431.85 263.077L431.417 260.308L433.581 259.702L435.571 258.577L436.177 255.981V252.433L435.052 249.75L437.561 249.837L439.292 251.654L442.321 252.26L443.792 250.183L445.09 248.019L446.648 244.644L448.725 242.654L449.763 240.058L450.802 242.568L451.321 245.337L452.879 248.452L454.782 250.096L457.032 250.789L459.456 250.529L461.706 249.664L463.956 249.404L466.552 247.76L468.975 248.452L471.225 248.193L473.648 247.673L474.773 245.337L474.513 241.789L473.994 238.76L475.119 235.904L477.282 234.346L479.532 233.048L481.782 232.702L484.292 233.568L486.023 235.644L487.234 238.068L487.407 240.923L488.013 243.519L491.129 243L493.811 242.827L496.494 241.702L498.311 239.885L499.263 237.289H501.686L503.244 239.193H505.494L506.619 236.337L508.523 234.779L510.773 234.606L512.417 236.423L514.581 237.375L516.831 238.327L518.129 240.577L520.379 240.318L522.456 239.366L524.619 238.241L526.609 239.798L525.917 242.481L523.84 244.039L522.109 246.375L519.946 246.289L518.042 248.193L519.513 250.962L521.85 252.26L523.927 250.702L526.004 249.75L528.34 249.058L530.504 249.577L533.273 248.971L535.263 250.356L534.917 253.471L537.167 254.683L538.379 257.279L540.975 256.587L543.311 256.414H545.561L547.292 254.25L549.282 255.548L551.532 257.712L553.263 259.616L555.427 260.221L557.85 260.654L560.273 261.519L562.436 261.693L564.427 260.048L565.811 262.471L567.975 263.51L566.331 265.846L563.734 265.933L561.657 267.058H559.321L557.417 268.529L557.677 271.558L555.859 273.202L554.302 275.193L551.792 275.712L550.148 277.875L547.638 279.779L545.475 280.904L543.571 282.548L542.446 285.058L541.234 287.914L539.85 290.856L538.638 293.452L540.975 295.269L541.84 298.385L540.196 300.548L538.811 303.231L536.734 304.269L534.052 303.923L531.975 304.962L529.379 304.183L527.129 303.577L524.619 303.491L523.061 301.5L521.157 299.337L519.859 297.087L517.869 295.875L515.532 295.096L513.888 297.173L511.638 298.298L511.292 301.241L511.638 304.096L509.302 303.75L506.706 303.144L504.282 302.625L502.206 301.327L499.696 302.366L497.532 304.01L495.715 305.654L493.638 304.702L491.388 303.404L490.782 306.433L489.744 308.856L488.706 311.712L487.667 314.308L489.571 316.039L491.302 317.943L492.859 320.193L490.609 320.885L488.273 319.846L486.196 318.721L483.686 319.5L481.35 319.241L479.619 317.25L477.456 318.462L476.677 321.144L474.513 321.923L472.35 323.308H470.1L468.109 324.519L470.359 325.125L472.523 326.769L474.686 327.894L475.465 330.491L474.946 333.26L473.734 335.683L471.571 334.731L469.234 333.693L468.196 330.837L465.946 331.702L463.782 332.741L464.388 335.423L462.398 336.808L460.234 336.116L458.331 337.673L457.292 340.269L459.542 341.827L461.879 342.606L464.302 342.952L466.119 344.596L466.638 347.452L468.975 348.923L470.619 351.173L470.532 354.202L468.023 355.414L468.196 358.183L467.763 361.125L466.898 363.721L466.984 366.404V369.26L465.686 371.423L467.677 372.635L468.542 375.404V378.26L466.638 379.731L464.821 381.375L463.436 383.539L463.523 386.308L463.956 388.991L465.946 390.289L468.196 390.635L469.148 388.125L470.879 386.221L471.744 388.904L473.907 389.856L475.984 391.76L477.802 393.577L480.138 394.01L482.215 392.279L484.552 390.981L486.888 391.587L488.965 393.058L487.84 395.654L488.706 398.51L489.917 400.846L488.792 403.356L486.888 401.625L484.725 400.933L482.734 402.058L480.657 403.529L481.35 406.125L482.215 408.721L481.869 411.837L481.004 414.433L479.1 415.904L478.927 418.76L478.494 422.221L477.196 424.471L475.465 426.202L473.129 425.856L470.879 427.587L468.975 428.971L467.417 430.962L465.34 429.491L463.09 428.452L460.581 429.491L458.157 430.356L456.167 431.654L454.004 432.26L452.273 430.443L450.023 430.356L447.946 429.491L445.436 428.885L443.879 426.721L441.975 425.25L440.763 427.587L438.686 426.202L437.302 423.866L435.744 421.529L433.927 419.885V417.116L431.85 415.212L430.206 413.221L430.638 410.452L431.677 407.943L430.984 405.087L431.157 402.318L430.898 399.462L429.34 397.471L427.09 397.644L424.84 398.423L423.715 395.741L421.552 395.048L419.561 396.26L417.484 395.308L416.619 392.625L418.09 389.769L417.398 387L417.917 384.318L418.696 381.721L419.475 379.125L421.379 377.741L421.811 374.625L422.417 371.769L424.581 370.991L423.888 367.875L421.638 366.577L419.994 368.568L417.917 366.75L417.484 364.068L419.042 362.077L416.792 361.904L416.273 359.221L414.023 359.308L413.071 361.991H410.907L408.657 361.385L406.407 361.558L405.715 358.789L405.369 356.106L406.494 353.596L405.196 351L406.148 348.491L403.465 347.712L402.34 345.029L400.004 344.423L397.494 344.25L396.109 342.173L393.6 341.048L393.34 338.279L392.475 335.683L391.263 333.346L389.359 331.962L391.004 328.846L392.994 327.548V324.606L390.831 323.827L392.821 322.096L393.513 319.327L393.859 318.375Z" fill="#2563EB" fill-opacity="0.1" stroke="#2563EB" stroke-opacity="0.42" stroke-width="0.865383" stroke-linejoin="round"/>
<path d="M272.273 338.797L272.359 341.566L270.196 342.691L272.186 343.902L272.792 346.498L272.965 349.527L274.523 351.95L275.821 354.114L276.599 356.97L277.465 359.998L278.157 362.854L279.455 365.883L278.503 368.652L276.253 368.133L274.176 366.835L272.359 368.479L270.455 367.181L269.849 364.325L267.426 363.979L266.301 361.123V358.354L266.734 355.498L266.648 352.643L266.474 349.7L266.301 346.845L264.83 343.643L264.051 340.96L265.349 338.623L267.34 337.152L269.59 336.72L271.753 338.71L272.273 338.797ZM313.811 274.066L316.84 275.191L319.176 276.143L321.686 276.489L323.849 277.354L324.974 279.691L326.186 282.027L327.051 285.229L329.128 286.354L329.388 289.383L330.773 291.72L333.369 292.672L335.532 293.364L337.955 292.412L340.465 292.066L341.849 289.902L344.619 287.998L347.301 286.873L350.071 286.008L352.407 284.797L354.744 284.364L356.821 285.575L359.676 284.797L361.926 283.498L364.609 282.547L366.859 281.681L367.898 278.998L370.148 279.431L372.484 278.739L374.734 280.037L376.984 281.075L379.061 281.768L380.705 283.672L382.955 285.922L385.205 287.306L387.455 287.825L389.446 289.037L390.83 291.114L392.907 292.325L393.859 294.748L395.503 296.999L397.234 298.902L398.359 301.412L400.696 303.056L403.032 303.922L404.936 305.912L404.849 308.768L407.099 310.498L408.051 312.922L406.061 314.652L403.984 313.614L401.821 312.922L399.484 313.441L397.061 313.787L398.013 316.297L395.763 316.816L393.946 318.373L393.426 321.056L391.609 322.7L389.446 323.566L386.936 323.393L384.859 322.008L382.782 320.537L380.792 319.239L378.888 317.681L376.724 317.595L374.474 316.902L372.83 318.806L370.58 320.623L372.051 323.566L374.301 323.393L374.474 326.162L374.301 329.104L373.782 331.873L373.436 334.643L374.042 337.239L375.946 338.797L378.109 339.143L379.926 341.22L379.407 343.902L377.763 345.806L376.032 347.797L377.157 350.912L375.599 352.902L376.465 355.498L378.801 356.018L378.715 359.133L379.58 361.816L380.099 364.412L382.436 365.797L384.686 367.441L386.936 369.085L388.926 367.96L389.705 370.556V373.499L389.099 376.268L389.619 379.037L388.321 381.287L387.109 383.623L387.196 386.912L386.503 389.508L388.494 390.979L390.571 392.104L389.965 394.96L391.436 397.643L393.946 398.768L395.157 401.018L396.369 403.441L398.619 402.922L399.571 400.412L400.523 397.816L400.869 394.7L400.523 391.931L403.378 391.585L403.724 394.354L404.157 397.123L406.061 398.768L407.446 400.931L409.696 402.316L411.859 402.922L413.244 400.672L415.148 398.422L417.138 397.123L419.561 396.258L421.551 395.047L423.715 395.739L424.407 398.335L426.571 397.902L428.821 397.21L430.551 399.114L431.417 401.624L430.984 404.393L431.676 407.422L430.811 410.104L430.205 412.787L431.849 415.21L433.926 417.114V419.883L435.744 421.527L434.532 423.777L433.84 426.547L435.571 428.191L434.446 430.614L433.926 433.297L431.503 432.604L430.119 430.354L427.609 430.268L425.273 429.316L423.023 428.104L423.282 430.873L422.849 433.643L422.157 436.325L419.907 437.45L417.744 436.758L415.407 437.624L412.811 437.277L411.773 434.768L410.215 432.431L408.398 430.787L406.407 432.258L404.157 431.999L402.426 429.922L401.648 427.239L400.436 424.902L400.263 421.787L398.965 419.364L399.398 416.335L397.667 414.085L395.417 413.566L393.167 414.345L391.696 416.422L389.359 417.2L387.282 416.422L385.378 418.152L386.59 420.489L384.34 419.97L382.003 419.018L379.84 419.623L377.33 419.45L375.426 421.095L373.263 420.402L371.099 421.008L370.667 423.864L368.157 423.431L365.907 422.739L363.224 420.922L361.321 419.45L361.148 416.595L360.715 413.825L359.244 411.575L356.994 412.7L355.09 411.143L352.84 410.97L350.503 410.71L348.426 409.499L346.263 409.931L344.186 411.922L341.936 412.614L339.167 412.181L337.869 414.431L337.09 417.373V420.143L336.744 423.085L335.099 425.162L332.763 426.027L330.253 426.547L328.609 428.797L325.926 429.489L323.59 429.835L321.253 430.354L319.869 432.604L318.138 434.335L315.542 433.729L312.946 433.383L310.436 433.816L309.657 430.441L309.224 427.585L307.321 425.422L305.676 423.518L304.119 421.614L306.974 420.662L305.503 418.499L303.253 419.018L302.042 416.768L300.657 414.258L298.667 412.527L296.244 413.739L294.599 411.662L291.657 410.191L289.407 410.45L288.974 413.393L287.59 410.71L289.58 408.806L291.744 407.681L291.571 404.998L293.215 402.229L292.609 399.46L292.436 396.604L293.821 394.441L294.773 392.018L293.042 390.2L292.349 387.431L290.446 385.181L288.974 382.498L290.965 380.854L293.474 380.162L295.724 378.518L293.301 376.614L291.398 374.883L289.494 373.499L286.984 373.066L286.811 370.124L287.503 367.527L289.321 365.883L291.311 363.979L289.061 364.845L287.503 362.595L286.638 359.998L286.032 357.056L286.205 354.2L286.292 351.258L285.773 348.575L283.869 346.845L284.301 343.989L283.869 341.306L282.657 339.056L280.234 338.018L277.292 337.412L275.648 335.335L273.138 334.989L271.061 333.95L268.811 335.422L266.734 336.547L265.09 338.623L262.926 339.316L260.763 339.662L260.936 336.893L262.321 334.816L262.58 331.96L261.628 329.191L260.503 326.768H258.167L257.734 323.912L259.032 321.662V318.893L256.869 319.325H254.359L253.753 321.922L251.33 323.133L249.426 324.604L247.003 325.729H244.667L243.023 323.306L244.494 321.143L246.484 319.931L248.821 321.229L251.071 320.97L252.455 318.72L250.205 318.633L251.244 316.037H248.907L247.609 313.874L245.359 312.922L242.071 313.527L243.282 315.777L241.898 318.373L239.994 320.104L239.907 317.162L240.686 314.652L239.215 312.575L240.599 310.325L242.157 308.249L242.936 305.652L243.974 303.143L242.59 300.373L244.148 298.383L245.359 300.893L245.878 303.662L247.955 302.364L248.215 299.508L249.167 296.912L247.436 295.008L246.657 292.412L248.994 292.152L249.773 289.643L252.282 289.21L254.446 288.518L257.042 289.297L259.119 290.335L261.542 289.989L261.369 286.787L261.109 283.931L260.849 280.902L262.148 278.739L263.878 281.162L262.753 283.498L262.667 286.527L264.224 289.297L265.869 291.72L264.224 293.537L262.84 295.873L261.715 298.729L264.138 300.027L262.407 301.845L260.071 302.883L260.849 306.258L263.099 303.835L265.263 303.316L266.128 300.72L265.782 297.777L267.773 296.479L268.378 299.162L270.369 301.152L270.109 298.297L271.753 296.047L272.273 293.277H275.042L276.513 290.768L279.282 290.422L277.465 288.864L276.08 286.7L278.157 285.143L275.648 284.883L273.224 284.277L271.407 282.633L269.157 281.768L267.167 280.556L269.157 279.085L271.321 279.95L273.484 279.172L272.186 276.922H270.023L267.686 276.489L266.042 274.585L268.551 273.72L270.974 272.941L273.224 272.335L276.08 272.162L278.244 270.95L280.321 272.422L282.311 273.547L284.561 273.114L283.609 270.518L285.773 266.97L287.071 264.547L289.494 264.027L291.484 265.239L292.955 267.662L295.638 268.441L297.628 269.652L300.224 270.864L302.301 271.989L304.638 273.2L306.801 274.066L309.224 274.239L311.994 274.325L313.811 274.066Z" fill="#2563EB" fill-opacity="0.1" stroke="#2563EB" stroke-opacity="0.42" stroke-width="0.865383" stroke-linejoin="round"/>
<path d="M352.84 410.97L355.09 411.143L356.994 412.701L358.897 411.316L360.542 413.652L360.888 416.422L361.32 419.277L363.224 420.922L364.955 422.652L367.205 422.826L369.195 424.124L370.926 422.133L372.397 420.056L374.561 421.008L376.551 419.797L378.888 420.749L380.099 418.499L382.349 419.018L384.599 420.402L385.465 417.72L387.801 417.114L390.57 416.595L392.561 414.604L394.897 415.383L396.974 413.739L399.051 415.902L398.792 418.672L399.917 421.441L400.869 424.037L401.128 426.806L402.253 429.229L403.897 431.566L405.974 432.864L408.051 430.874H410.215L411.34 433.47L412.205 436.152L414.455 436.585L416.532 437.797L418.695 436.758L421.032 437.191L423.109 435.374L423.628 432.691L423.282 429.576L425.705 429.316L428.128 430.787L430.378 430.874L432.195 432.604L433.58 430.354L435.744 429.576L433.84 427.845L434.186 424.989L436.263 423.864L438.167 425.335L439.205 428.018L441.109 425.768L443.532 425.249L443.965 427.931L446.215 428.797L448.378 429.402L450.628 429.835L452.619 430.96L454.695 431.999L456.859 431.047L459.542 430.008L461.792 428.797L463.955 428.277L465.772 430.095L467.33 433.124L468.888 436.066L470.013 438.402L470.705 441.172L471.57 443.768L469.407 445.412L468.628 448.008L466.638 449.912L464.474 451.816L463.263 454.499L460.926 455.71L459.369 457.701L456.426 458.22L454.522 459.691L452.359 460.643L450.282 459.518L449.503 462.287L448.205 464.537L446.994 467.047L444.484 468.431L442.494 470.249L440.33 471.287L439.724 473.97L439.292 476.652L439.465 479.422L437.907 482.104L436.695 484.787L436.176 487.816L434.792 490.153L434.619 492.835L435.83 495.258L433.926 496.816L432.628 499.066L432.369 501.922L430.465 504.085L430.638 506.854L432.715 508.239L434.705 509.364L436.003 512.047L437.128 514.556L438.34 516.893L436.349 518.104L436.09 520.874L437.907 522.518L440.244 522.951L440.07 525.72L439.378 528.316L437.474 530.393L435.57 532.037L434.619 534.806L432.888 536.624L433.84 539.047V541.816L432.109 543.893L429.599 545.451L427.263 543.893L425.186 542.854L423.109 541.297L421.378 539.479L419.388 538.181L416.619 537.489L414.542 536.451L411.167 537.143L408.917 538.181L407.532 540.604L406.234 542.941L404.503 544.845L402.253 544.931L400.263 543.72L397.407 544.326L395.33 545.71L393.08 546.056L390.744 544.672L388.58 544.758L386.33 544.499L384.686 542.595L382.609 541.383L381.138 544.066L378.801 543.633L377.763 541.037L375.599 541.643L373.522 543.547L371.965 545.537L369.888 546.403L367.638 546.922L365.128 545.797L362.792 544.845L360.369 544.152L360.109 541.21L362.445 540.691L362.013 537.922L361.753 535.239L359.676 534.46L357.513 532.47L359.59 530.479L359.936 527.277L358.378 525.374L358.032 521.652L355.782 521.393L353.619 520.614L352.753 524.422L351.109 526.499L349.897 528.835L348.772 531.604L346.349 531.691L344.445 529.874L342.628 528.316L340.811 526.499L340.378 523.816L338.388 522.604L336.57 520.96L334.32 520.354L332.936 518.191L330.772 516.979L329.388 519.576L327.138 519.922L324.109 519.835L322.032 520.874L320.042 522.431L321.253 525.114L321.513 527.97L319.522 529.787L317.445 530.826L318.657 533.162L317.445 536.191L315.109 536.451L314.07 538.874L311.734 539.133L309.484 539.566L308.532 542.162L306.628 543.547L304.205 543.027L302.215 541.47L299.792 541.903L300.138 544.845L297.715 545.191L295.465 544.931L293.128 545.451L291.484 543.633L290.705 540.778L290.359 537.922L288.195 538.787L288.022 535.499L286.292 533.768L287.417 530.826L286.119 527.71L283.869 526.758L281.705 526.066L279.455 525.547L280.234 523.037L281.792 520.701L283.09 518.364L284.561 515.249L285.772 512.912L288.022 513.172L288.974 510.662L291.051 509.451L293.561 509.277L295.724 508.931L298.32 507.893L300.83 508.239L302.388 505.989L303.34 503.479L305.849 502.787L308.013 503.479L309.744 505.47L309.917 502.614L307.753 501.749L305.244 501.056L302.647 500.883L299.619 500.71L297.369 500.624L294.772 501.316L292.436 502.008L290.445 500.71L288.282 501.316L286.811 499.326L284.734 498.287L283.695 495.778L283.09 493.095L285.253 491.71L287.417 489.979L289.494 488.595L291.224 486.518L292.782 484.268L295.119 483.316L294.253 480.72L292.695 478.556L290.878 476.826L289.84 474.056L288.801 471.46L287.503 468.085L286.292 465.056L287.676 467.566L289.494 472.585L290.532 475.181L292.09 477.777L294.08 480.114L295.984 482.883L298.407 482.797L300.744 480.806L302.301 478.297L304.292 475.787L304.984 472.585L305.07 469.729L305.59 466.701L308.013 467.826L310.522 467.653L312.859 467.393L315.195 467.22L314.244 464.624L313.205 461.422L312.08 457.96L311.215 452.335L309.051 453.027L306.801 453.114L304.465 452.768L303.08 450.518L302.907 447.143L303.772 444.46L301.436 443.076L299.965 445.758V449.479L297.888 447.402L296.849 444.979H293.647L292.09 447.662L290.878 451.383L289.753 454.758L288.801 457.528L288.542 460.297L286.984 462.374L284.994 464.883L282.83 464.277L281.013 462.287L283.263 462.547L285.426 462.893L287.33 460.556L288.455 457.874L289.407 454.845L290.359 452.076L291.657 448.354L292.522 445.585L291.484 443.076L291.311 439.701L293.647 438.835L296.676 438.489L300.224 438.229L302.561 438.056L304.638 439.181L306.628 437.97L308.878 437.191L311.128 437.104L313.465 436.758L315.888 435.633L318.224 436.845L320.388 436.152L321.426 433.816L320.215 431.566L322.205 430.354L325.494 429.489L327.83 429.143L329.734 427.239L331.984 426.201L335.099 425.162L336.744 423.085L337.09 420.143V417.374L337.869 414.431L339.167 412.181L341.417 412.095H343.753L345.484 410.364L347.82 409.412L349.984 410.451L352.667 410.97H352.84Z" fill="#2563EB" fill-opacity="0.1" stroke="#2563EB" stroke-opacity="0.42" stroke-width="0.865383" stroke-linejoin="round"/>
<path d="M256.264 661.759L259.033 661.586L261.283 662.797L263.187 664.355L263.88 667.124L265.697 668.768L267.601 666.951L268.726 669.634L270.543 671.278L272.447 673.095L272.014 675.865L273.485 678.115L270.803 677.769L271.841 680.192L270.197 682.009L270.716 684.692L269.245 686.855L267.601 688.672L266.908 691.442L265.351 689.451L263.014 689.105L262.149 691.615L263.706 694.038L262.408 696.288L260.158 696.461L260.331 693.692L258.514 692.047L258.255 694.817L255.831 694.73L253.841 696.115L251.245 696.028L249.601 698.018L247.437 698.97L245.274 698.884L243.803 696.893L241.639 698.192L240.947 695.509L238.87 694.557L237.745 692.047L236.014 690.143L235.668 687.201L236.793 684.692L238.783 683.394L240.081 680.797L242.158 679.672L244.235 678.115L246.399 676.644L247.61 673.788L249.255 676.124L249.687 673.442L252.11 672.663L252.803 669.98L255.139 667.47L256.091 665.047L255.139 662.451L256.264 661.759ZM339.255 682.269H336.831L338.129 684.951L338.562 687.634L336.831 685.211L333.889 683.653H331.293L328.956 682.442L327.572 680.278L326.88 677.163L326.274 674.393L326.187 671.624L326.36 668.682L326.447 665.913L325.668 662.797L324.803 660.288L324.716 657.172L324.11 659.769L323.331 662.365L322.985 665.134L322.899 667.903L323.505 670.672L322.293 673.182L322.12 675.951L319.956 676.99L320.822 679.586L319.264 682.009L317.706 684.345L315.37 684.951L313.033 685.817L311.649 687.98L309.485 687.115L307.495 688.326L305.418 690.317L304.033 692.567L303.947 695.249L303.168 698.711L302.043 701.047L301.61 704.163L298.841 703.99L296.591 703.817L294.947 705.807L292.524 707.018L290.966 705.115L291.918 702.259L291.399 699.663L290.274 697.067L288.197 698.192L285.86 698.884L283.87 697.413L286.12 697.153L285.081 694.73L287.505 693.692L287.158 690.922L289.495 690.143L289.928 687.288L287.764 686.163L285.428 686.942L284.13 684.692L284.303 681.403L282.918 679.153L283.956 676.038L284.043 672.836L281.793 671.711L281.36 669.028L279.716 666.951L277.553 666.086L275.822 667.73L274.264 669.98L274.091 667.124L272.274 665.394L270.024 664.788L267.947 664.095L265.437 664.182L263.274 662.797L262.235 660.461L260.072 660.028L258.514 657.518L260.505 656.307L261.543 653.884L259.293 654.057L257.389 652.672L257.735 649.903L257.389 647.047V644.278L258.687 642.115L259.899 639.778V636.836L260.764 634.326L263.274 633.98L265.61 635.97L266.562 639.432L268.553 641.336L269.505 644.019L271.841 642.374L273.399 640.211L272.62 637.615L270.543 636.49L272.966 634.672L274.178 631.903L277.639 631.124L279.803 630.692L281.966 629.913L280.841 627.23L278.851 628.442L276.774 629.307L274.437 630.086L272.101 630.345L270.456 628.355L271.322 625.326L272.966 622.643L275.043 620.999L277.12 619.874L275.822 617.624L275.389 614.769L274.697 611.999L276.168 609.403L274.437 607.586L274.091 604.557L274.783 601.268L272.88 599.711L272.793 596.855L271.149 599.365L272.014 602.134L271.841 604.903L271.322 607.845L269.072 608.365H266.822L265.351 606.201L264.399 603.519L262.581 601.701L262.755 598.759L265.005 598.153L266.389 600.317L268.38 599.278L270.11 597.461L268.38 595.73L270.024 593.913L272.014 592.442L274.005 591.143L273.658 588.374L271.408 587.509L269.418 588.807L268.899 585.951L266.562 585.086L267.514 582.49L265.87 580.672L263.966 582.836L262.581 585.086L263.101 587.682L261.456 585.605L259.206 586.384V589.499L257.735 591.663L255.658 592.874L253.408 592.182L253.495 589.326L253.755 586.557L251.331 585.951L249.255 584.913L246.918 584.48L244.668 584.22L244.928 581.451L245.187 578.595L247.178 577.47L250.033 577.99L252.283 578.163L254.966 579.028L257.13 578.855L255.399 577.124L256.351 574.182L257.649 571.672L259.812 572.797L262.149 572.884L265.178 574.528L266.476 572.365L267.86 570.115L268.553 572.797L267.514 575.22L266.389 577.643L266.995 580.326L269.072 579.201L268.293 582.49L270.456 583.009L272.793 583.182L274.437 581.278L273.399 583.788L275.995 583.615L275.303 586.557L275.476 589.413L277.639 590.711L278.158 587.942L279.976 586.557L281.88 584.307L280.928 581.538L283.005 580.586L281.447 577.99L279.11 577.817L276.168 573.749L274.005 572.278L273.399 569.595L271.062 567.951L269.851 565.701L271.928 564.49L272.706 561.634L269.505 562.672L267.428 564.144L268.12 561.028L266.216 562.499L264.658 560.249L262.581 561.288L262.495 558.432L263.36 555.836L265.783 556.009L265.697 553.24L267.601 551.422L269.072 549.086L271.322 549.345L272.187 546.749L272.62 544.067L273.312 541.297L273.831 538.615L275.13 535.759L278.331 536.365L280.408 537.49L277.899 535.672L276.428 532.99L276.774 530.047L277.293 527.365L279.456 526.499L282.053 526.326L284.216 526.759L286.899 528.576L287.245 531.605L286.639 534.374L287.937 536.97L290.274 537.663L290.88 540.432L291.485 543.461L292.697 545.797L294.774 544.759L297.11 545.278L299.274 546.403L299.187 543.547L301.264 542.076L304.206 543.028L306.63 543.547L308.533 542.163L309.485 539.567L311.735 539.134L313.985 538.874L315.11 536.451L317.447 536.192L318.572 533.855L317.62 531.345L319.524 529.788L321.255 528.143V525.201L319.524 523.124L321.687 521.826L323.505 520.009L326.014 519.836L328.524 519.922L329.303 517.326L331.553 517.932L332.418 520.442L334.841 520.528L337.178 521.307L339.081 522.778L341.072 524.249L340.726 527.105L342.889 528.836L344.706 530.567L346.956 531.605L349.639 531.345L349.812 528.576L351.283 526.067L353.274 523.211L353.793 520.528L356.129 520.961L358.033 522.951L358.726 525.72L359.678 528.317L358.899 530.999L358.726 533.768L360.976 533.595L362.187 535.932L362.533 538.615L361.322 540.865L359.591 542.769L361.581 544.153L363.745 545.192L366.081 546.576L368.505 546.922L370.408 545.538L372.572 544.586L374.216 542.595L376.899 541.644L378.543 543.547L380.706 544.413L381.658 541.903H383.908L386.072 543.98L388.235 544.672H390.658L392.735 545.711L395.072 545.884L396.889 544.413L399.312 543.461L401.389 544.586L403.466 546.49L405.37 544.153L406.841 541.903L408.139 539.653L410.13 537.057L412.466 537.144L414.716 536.365L417.572 537.403L419.649 538.442L421.639 539.653L423.456 541.297L425.274 542.942L427.783 544.586L428.476 547.182L430.12 550.124L431.505 552.201L433.149 554.365L433.928 557.22L434.187 560.682L434.274 564.144L435.485 566.48L437.389 568.817L439.553 569.942L441.456 571.586L443.447 574.009L443.793 576.692L444.745 579.201L446.562 581.624L448.726 582.749L450.11 585.259L452.274 586.124L453.658 588.288L454.697 591.057L455.649 593.567L454.956 596.509L453.312 598.326L451.841 600.49L453.399 603.605L451.322 605.682L449.678 603.259L451.322 601.442L448.466 602.307L446.649 604.124L444.831 605.768L442.841 607.153L440.764 606.115L439.812 608.624L439.379 611.567L437.476 613.038L434.966 611.134L437.562 610.009L435.226 610.182L433.322 608.797L431.331 606.893L428.995 607.499L430.985 609.057L432.456 611.22L431.331 613.817V616.932L432.716 619.095L434.793 620.047L436.178 622.643L438.514 620.826L441.024 620.653L443.014 617.97L445.697 617.711L447.947 617.192L449.851 618.749L451.755 617.192L454.091 617.365L454.178 620.74L453.226 623.163L453.312 625.932L451.668 628.182L450.456 630.518L451.495 632.942L450.889 635.624L448.726 636.922L447.254 638.999L445.091 639.865L442.928 638.047L440.937 636.49L439.466 634.326L437.995 636.749L436.697 639.259L437.043 642.028L434.879 641.249V643.932L436.61 645.749L434.36 645.922L435.831 648.259L435.312 651.115L436.783 653.624L434.62 654.317L433.235 652.153L430.812 651.288L428.476 651.201L429.168 654.057L427.61 651.98L426.139 649.73L426.658 646.961L425.101 644.884L427.005 643.413L425.88 640.99L426.399 638.047L428.649 637.961L430.466 636.057L429.601 632.682L427.524 630.865L426.572 628.095L425.533 625.672L422.764 626.019L421.812 623.509L423.543 621.605L421.812 619.874L420.947 616.932L419.129 615.374L417.572 617.711L416.62 620.394L414.197 619.961L412.033 620.826L409.697 621.345L407.447 621.432L405.543 623.076L403.466 621.432H401.216L403.293 622.817L404.851 624.807L407.014 624.98L405.543 627.317L404.505 629.826L405.803 632.422L404.072 634.759L401.995 636.49L402.947 638.999L404.245 641.249L406.408 642.461L407.879 644.451L409.437 646.442L411.601 647.307L413.851 649.211L416.014 650.942L413.764 651.288L415.062 653.538L417.312 653.97L418.091 656.653L419.303 658.99L417.745 661.499L415.668 662.624L413.418 662.278L411.254 662.884L409.437 661.24L406.928 660.807L404.678 662.105L405.024 665.047L407.187 665.913L409.524 666.259L410.216 669.201L408.658 671.278L406.581 672.144L405.283 674.393L402.947 674.567L404.331 676.99L402.168 678.288L400.351 676.557L398.966 678.807L396.716 678.893L394.985 680.711L397.235 682.095L396.11 684.605L394.033 683.22L392.908 680.884L391.178 679.153L388.408 678.201L390.226 676.644L389.014 674.307L387.11 672.49L384.86 672.403L382.783 671.019L380.706 671.884L378.976 670.153L376.726 670.24L374.562 671.278L372.399 671.884L370.235 670.672L368.764 668.163V665.22L370.668 663.49L372.312 661.586L374.476 660.72L375.687 658.384L376.12 655.701L377.504 653.538L378.889 651.461L381.053 651.028L383.129 649.73L383.735 646.701L384.86 644.365L386.245 641.855L388.408 641.163L389.793 643.326L389.706 646.528L391.351 648.345L394.293 648.865L394.985 646.268L396.197 643.759L398.014 641.768L396.456 639.518L395.937 636.49L393.774 634.759L391.87 636.922L389.62 637.701L387.456 637.961L386.331 635.538L383.649 633.807L381.053 636.663L380.274 639.518L379.235 641.855L377.504 644.019L375.255 644.365L373.091 644.105L371.101 642.894L368.418 644.192L367.379 646.788L365.216 647.999L363.053 649.038L361.408 651.028L359.764 653.105L357.687 653.884L355.697 655.095L353.274 655.009H349.726L351.889 655.615L353.533 657.432L352.668 660.028L351.37 663.143L353.187 664.701L351.976 667.038L351.283 669.98L350.504 673.095L348.86 675.605L350.678 677.682L348.86 679.413L346.61 678.201L345.831 680.97L345.572 683.653L343.149 682.788L340.639 682.442L339.255 682.269Z" fill="#2563EB" fill-opacity="0.1" stroke="#2563EB" stroke-opacity="0.42" stroke-width="0.865383" stroke-linejoin="round"/>
<path d="M667.925 291.374L668.185 294.316L668.79 297.432L670.867 300.46L672.079 302.883L673.031 305.566L673.896 308.595L675.281 310.845L674.329 314.22L675.367 316.816L674.848 319.585L675.194 322.614L673.81 325.037L671.56 325.816L669.915 327.72L669.137 330.403L667.579 332.48L666.973 335.162L667.492 337.932L667.146 340.874L668.358 343.21L670.175 344.941L670.608 348.143L670.954 350.826L672.338 352.989L671.127 355.499L669.656 358.008L670.088 361.037L669.829 363.807L669.915 366.662L668.963 369.345L667.406 371.335L666.021 373.585L664.637 375.922L663.944 378.518L662.733 381.114V383.883L662.819 386.566L662.646 390.028L662.127 393.057L663.079 395.826L663.425 398.595L662.473 401.105L662.3 403.96L664.377 404.999L665.156 407.768L665.069 410.71L665.675 413.566L667.752 415.383L670.262 416.335L669.742 419.018L667.838 420.576L666.627 422.912L664.463 424.383L662.56 425.855L662.733 428.624L665.588 428.364L667.838 429.057L665.848 430.528L667.492 432.605L669.05 434.941L671.213 435.893L673.031 434.076L675.021 432.518L677.444 431.653L678.915 429.23L680.992 426.374L683.069 424.21L684.367 421.787L686.704 421.96L688.088 424.383L689.127 426.807V429.749L688.608 432.518L687.137 434.855L685.233 436.585L685.406 439.355L684.454 441.864L682.896 443.855L681.079 445.585L681.425 448.441L682.81 450.518L682.204 453.287L682.377 456.143L681.079 458.393L680.3 461.249L680.04 464.191L678.569 466.441L677.271 468.691L677.704 471.46L677.617 474.23L676.579 477.432L675.713 480.028L675.021 482.71L674.762 485.48L673.896 487.989L672.079 489.72L669.915 490.326L667.319 488.682L664.983 487.816L662.127 487.557L660.223 486.085L657.713 487.557L655.29 489.374L653.04 489.547L651.396 491.537L649.319 490.239L646.983 489.547L647.329 486.432L647.069 482.97L644.906 482.191L642.569 481.153L640.665 479.682H638.415L635.992 480.374L633.742 479.508L631.406 479.162L629.675 481.066L627.079 481.672L624.742 482.883L623.098 484.614L622.146 487.297L623.185 490.412L620.935 491.018L618.685 492.749L616.175 493.095L614.185 494.999L612.281 496.73L609.858 496.557L607.954 494.999L605.79 493.095L603.54 492.489L601.204 492.922L598.954 494.133L596.877 495.605L595.146 497.768L593.242 500.451L590.819 499.239L588.742 500.451L586.752 503.047L584.329 503.912L581.992 503.999L579.656 502.614L577.579 501.662L575.329 502.268L573.512 500.191L571.348 499.499L569.098 499.153L567.021 500.105L564.944 500.97L562.175 501.922L560.012 501.143L558.021 499.845L556.29 498.028L554.819 495.864L553.348 493.787L553.175 491.018L552.396 488.422L552.31 485.393L552.656 482.624L553.435 479.768L555.685 478.21L557.762 477.172L560.012 477.605L562.088 476.653L563.3 479.162L563.819 481.845L566.242 481.758L568.406 480.46L570.656 479.682L572.56 478.297L573.598 475.701L573.338 472.672L572.387 469.903L573.252 467.48L575.415 466.268L576.021 463.499L576.973 460.903L577.752 458.047L580.348 457.701L582.165 456.143L582.338 453.287L581.819 449.999L580.348 447.662L579.569 444.98L579.742 442.037L580.435 438.922L578.617 437.191L578.185 434.422L575.935 433.124L573.944 432.085L571.521 432.432L569.358 432.951L567.021 432.864L564.685 433.297L562.435 435.633L560.531 437.191L557.935 438.057L555.771 439.095L553.262 438.143L552.483 440.739L552.915 443.855L552.31 446.797L550.665 448.701L549.194 451.124L546.944 450.951H544.608L545.04 447.922L545.387 445.153L543.31 444.028L540.973 444.98L538.896 446.278L537.338 448.614L535.781 450.518L534.223 453.98L533.271 456.576L536.906 458.307L539.502 458.739L541.925 459.172L544.002 460.21L545.992 461.855L545.56 464.71L543.483 465.749L540.8 465.662L538.204 465.143L536.3 467.22L535.262 469.73L533.877 471.98L534.223 474.749L537.079 476.566L539.156 478.21L539.935 480.893L538.463 483.057H536.213L533.79 482.451L530.935 481.499L529.204 483.489L530.242 486.172L531.887 488.076L533.877 489.807L535.608 492.489L534.569 494.999L532.665 496.557L530.588 494.653L529.637 492.143L527.387 491.537L525.05 490.672L522.713 489.893L520.031 490.326L518.04 491.537L515.963 490.499L514.146 492.23H511.29L509.3 490.845L507.31 489.547L505.06 490.239L504.627 487.124L507.223 486.432L509.213 485.22L509.906 482.364L509.56 478.989L508.435 475.787L506.963 473.71L504.887 472.499L504.108 469.816L501.858 469.124L500.04 467.48L499.348 464.797L497.704 462.72L495.627 461.508L493.55 460.383L491.387 461.162L489.137 461.595L486.8 461.249L484.637 461.768L482.819 460.124L481.435 457.441L479.098 457.874L476.935 456.749L474.858 457.787L474.252 455.191L472.954 452.335L470.79 452.249L468.454 451.73L468.627 448.874L468.108 445.932L470.271 444.633L471.915 442.73L470.444 440.22L469.146 437.797L467.848 435.547L467.242 431.999L468.281 429.576L470.358 428.451L472.002 426.46L474.338 426.633L476.329 425.422L477.973 423.432L478.06 420.489L479.271 418.239V415.47L481.348 414.085L482.04 411.489L482.127 408.028L481.002 405.691L480.656 402.922L482.733 401.797L484.983 401.018L487.492 402.23L489.656 402.662L490.002 399.893L488.012 397.21L488.531 394.355L487.319 392.105L484.896 390.893L482.733 391.672L480.569 392.71L478.665 394.095L476.762 392.451L474.944 390.807L472.435 389.335L471.223 386.653L469.146 388.124L468.194 390.633L465.944 390.287L463.954 388.989L463.521 386.307L463.435 383.537L464.819 381.374L466.637 379.73L468.54 378.345V375.576L467.762 373.066L465.598 371.508L467.069 369.345L468.194 366.922L466.983 364.326L467.848 361.73V358.96L467.329 356.191L469.492 354.98L471.31 353.249L470.617 350.566L468.454 348.749L466.723 347.018L466.031 344.422L463.781 342.951L461.358 342.432L459.194 341.653L457.377 339.922L458.502 337.499L460.579 336.287L462.742 336.98L465.079 336.114L464.04 333.605L465.685 331.787L467.069 329.451L468.627 331.528L470.012 333.951L471.915 335.595L473.04 338.105L474.079 335.595L475.031 333.085L475.55 329.883L474.338 327.287L472.175 325.816L469.838 325.297L467.502 325.47L469.665 323.133L472.088 323.393H474.425L476.069 321.143L477.367 318.633L479.358 317.249L481.348 319.239L483.685 319.499L485.329 317.422L487.233 319.153L489.223 320.364L492.165 320.883L491.473 318.028L489.569 316.037L487.665 314.566L488.704 311.71L489.396 309.028L490.781 306.432L491.127 303.576L493.463 304.441L494.935 306.605L497.012 305.22L498.137 302.797L500.3 302.191L502.637 301.499L504.627 302.797L507.483 303.489L509.906 304.008L511.55 302.018L510.858 299.422L513.367 298.903L513.973 296.22L516.483 295.528L519.338 296.999L520.81 299.076L522.627 300.98L524.531 302.537L526.781 303.489L529.117 304.095L530.935 305.739L532.838 304.182L535.175 304.008L537.425 304.268L539.329 302.624L540.8 300.201L541.665 296.307L539.588 294.057L539.415 291.374L541.06 288.432L541.319 285.662L543.223 284.364L545.127 281.162L547.29 279.951L549.281 278.912L550.492 276.403L552.829 275.71L555.338 274.499L557.069 272.335L556.983 269.133L558.887 267.835L561.137 267.316L563.127 265.845L565.117 267.316L567.021 264.893L569.444 264.287L571.608 265.066L573.858 266.71L576.108 267.23L578.963 267.662L580.694 269.307L582.512 267.403L581.213 265.153L583.117 263.508L584.588 261.345L587.098 260.133L589.002 261.432L591.252 261.518L592.637 264.201L594.627 266.105L596.877 267.057L599.04 266.191L601.031 264.201L602.675 261.432L604.146 259.441L606.396 259.008L608.127 261.691L610.55 260.999H612.8L615.05 261.518L617.3 261.778L619.55 262.816H621.8L622.579 260.047L624.483 258.749L626.646 258.23L628.723 259.182L630.8 260.999L633.05 262.21L635.127 263.595L636.858 265.585L638.762 267.576L641.185 267.23L643.521 267.403L643.435 264.633L643.348 261.864L645.079 259.96L646.81 258.057L648.54 256.153L650.79 255.547L652.608 253.816L654.771 252.778L657.194 251.307L659.358 250.614L661.435 251.999L662.127 254.595L662.387 257.364L664.637 259.701L666.973 262.297L668.877 263.768L667.233 266.105L667.06 268.874L667.233 271.73L667.665 274.932L666.454 277.355L667.406 279.778L667.838 282.46L667.665 285.23L667.579 288.172L667.925 291.028V291.374Z" fill="#2563EB" fill-opacity="0.1" stroke="#2563EB" stroke-opacity="0.42" stroke-width="0.865383" stroke-linejoin="round"/>
<path d="M470.966 617.365L472.264 619.788L473.562 622.038L475.725 622.644L476.158 625.326L478.494 625.932L480.658 623.855L482.648 621.951L485.418 622.211L487.581 622.038L489.831 622.99L492.081 624.201L491.648 627.144L490.35 629.48L490.523 632.422L490.956 635.192L489.225 636.922L487.841 639.345L489.744 640.903L487.321 641.769L486.11 639.519L484.466 641.336L482.302 640.47L480.139 641.422L477.889 641.682L476.937 638.913L476.331 635.971L476.764 633.201L474.687 630.951L472.696 632.076L471.225 634.153L472.091 636.663L470.619 638.826L467.591 639.086L465.254 638.653L464.389 635.538L462.225 635.192L462.918 632.509L464.821 631.038L463.264 629.047L462.052 626.711L461.014 624.288L459.543 622.124L459.11 619.442L459.716 616.499L461.36 614.163L461.1 610.874H463.61L465.86 610.442L464.129 608.538L466.033 606.028L467.764 604.211L470.014 603.778L472.177 604.384L473.994 606.461L473.908 609.23L473.735 612.259L471.744 613.384L470.187 615.461L470.966 617.365ZM571.004 629.22L569.1 631.211L566.85 631.124L567.196 634.24L568.494 636.403L571.264 636.057L569.187 637.009L566.937 637.442L564.687 637.788L565.725 640.211L563.994 641.942L561.658 642.634L559.494 642.028L560.706 639.432L559.408 637.096L558.802 634.413L560.966 633.028L559.494 630.865L557.331 631.297L556.119 628.701L554.389 630.605L555.168 628.009L557.591 628.182L559.494 626.884L559.754 623.855L559.581 621.086L558.629 618.49L556.639 620.047L554.389 621.692L551.619 621.865L551.446 624.634L549.283 623.855L547.725 621.519L545.908 619.615L545.302 616.153L545.821 613.384L547.379 611.047L549.369 609.922L551.533 607.672L553.696 608.451L555.687 610.182L557.85 611.22L558.456 608.192L560.273 610.182L562.264 611.48L564.341 612.345L563.562 609.576L562.437 607.24L560.533 605.595L560.014 602.913L561.139 600.576L563.389 601.095L565.639 601.269L567.802 601.701L567.975 598.413L569.706 596.596L571.956 596.769L572.043 593.999L570.744 591.663L572.389 589.672L574.639 589.413L576.802 591.057L576.283 593.826L573.687 595.384L573.773 598.153L575.158 600.317L576.975 602.913V605.769L577.581 608.624L576.369 610.961L574.552 612.519L575.158 615.461L577.148 613.557L579.571 613.471L580.177 616.153L577.668 616.413L578.879 618.922L576.716 619.182L574.725 620.48L577.148 620.913L577.235 623.769L578.446 626.019L579.744 628.615L577.494 628.355L576.023 626.192L573.86 627.663L571.783 625.153L570.052 626.797L571.004 629.22ZM543.398 580.672L545.735 581.884L543.485 583.528L541.235 583.442L539.591 585.778L537.341 585.951L534.918 586.557L532.581 587.076L532.148 590.192L533.966 592.269L533.273 589.499L535.783 588.374L537.946 588.028L540.283 587.682L540.975 585.086L543.312 584.913L545.389 583.961L546.081 586.557L543.918 586.99L544.956 589.413L546.946 591.057L548.591 592.874L546.254 593.394L545.648 596.163L542.879 596.336L540.543 595.903L538.206 595.99L540.11 597.547L541.148 600.057L539.331 601.961L538.639 604.557L539.244 607.326L537.773 609.403L537.86 612.432L538.206 615.201L539.504 613.038L541.148 611.047L542.1 608.624L542.966 611.307L545.216 612.692L544.091 615.115L542.187 616.586L542.273 619.615L540.023 620.134L537.773 620.74L535.437 621.432L533.1 620.047L533.36 617.278L535.61 617.105L537.86 617.538L535.264 616.413L533.187 615.461L532.841 612.692L532.235 615.374L529.725 615.721L528.86 613.038L526.696 613.903L524.533 613.557L523.062 611.48L525.052 609.749L527.475 609.663L529.466 608.365L527.216 607.499L528.341 605.163L526.35 603.432L524.966 601.095L525.052 603.951L523.062 605.422L522.975 608.105L521.071 609.49L518.994 610.528L518.216 608.019V604.817L515.966 604.471L513.629 604.297L511.293 604.211L509.043 605.076L509.475 607.846L509.389 610.788L507.398 611.826L505.062 610.615L502.725 610.269L501.168 612.605L499.437 610.442L496.841 611.047L497.793 608.451L495.975 606.807L493.725 606.547L491.389 606.461L489.139 605.076L487.494 602.221L489.312 600.403L489.139 597.634L488.533 594.778L490.004 592.528L488.1 591.23L488.619 588.288L489.052 584.653L490.869 582.836L488.187 582.49L487.235 585.432L486.889 588.201L485.418 590.278L485.244 587.596L482.648 587.682L480.658 589.586L482.908 588.98L484.379 591.144L485.764 593.394L485.418 596.336L483.168 595.644L482.129 598.413L480.052 597.461L477.802 597.547L475.033 597.98L475.725 595.297L474.254 593.134L472.61 595.47L471.398 597.807L470.446 600.317L468.889 602.307L466.725 603.519L464.389 603.259L462.831 601.009L460.841 602.74L459.196 604.73L458.158 607.153L456.427 604.644L454.437 602.567L452.533 600.403L453.744 598.067L455.043 595.557L455.735 592.442L454.091 590.019L453.398 587.163L451.148 585.951L449.504 583.961L447.773 582.23L445.783 580.413L443.879 578.076L443.793 575.307L442.321 572.624L440.677 570.807L438.687 569.422L436.783 567.951L435.225 566.047L434.1 563.278L434.187 559.47L433.668 556.701L433.062 554.019L431.331 552.201L429.687 548.913L428.389 546.49L430.379 545.019L432.283 543.547L434.187 541.644L433.494 538.874L432.889 536.105L434.793 534.547L436.004 531.345L438.254 529.269L439.725 527.019L440.677 524.509L438.687 522.778L436.264 521.307V518.451L438.168 517.067L437.129 514.557L435.744 512.307L434.793 509.711L432.716 508.672L430.639 506.855L430.466 504.086L432.369 501.922L432.629 499.067L433.927 496.817L436.091 495.778L434.619 493.615L434.446 490.759L435.571 488.249L436.61 485.653L437.389 482.884L439.379 481.067L439.552 478.297L439.639 475.269L439.725 472.413L441.889 471.374L443.533 469.384L445.437 467.999L447.254 466.182L448.639 463.672L449.418 460.99L451.841 460.644L454.523 459.692L456.427 458.22L458.677 457.788L460.494 455.971L462.918 456.057L464.475 453.634L465.081 450.865L467.504 449.394L468.716 451.73L471.225 452.249L473.302 452.942L474.341 455.624L475.985 457.874L478.235 457.009L480.225 458.22L482.302 459.345L484.206 461.163L486.629 461.336L488.879 461.509L491.389 461.163L493.552 460.297L495.456 461.682L497.533 462.547L499.61 463.499L499.437 466.355L500.735 468.692L502.985 469.038L504.456 471.201L506.187 473.365L508.091 474.836L509.216 477.259L509.821 480.634L509.994 483.403L508.437 485.913L506.1 486.951L504.456 489.115L506.793 489.634L508.956 490.586L510.946 491.884L513.283 492.403L514.927 489.894L517.091 491.105L519.427 491.192L521.937 490.586L524.793 490.499L526.956 491.192L529.206 491.624L530.418 493.874L530.85 496.644L533.187 497.682L535.35 496.211L537.86 495.346L540.196 494.047L542.273 492.836H544.61L546.946 493.009L549.11 492.49L549.456 489.461L549.716 486.778L552.052 485.394L552.398 488.422L553.177 491.019L553.35 493.788L554.821 495.865L556.293 498.028L558.023 499.845L560.014 501.144L562.177 501.922L564.427 501.23L566.591 500.538L568.668 499.24L570.831 499.413L573.341 499.845L574.898 502.269L577.062 501.836L579.312 502.442L581.389 503.48L583.639 503.74L585.802 503.999L587.36 501.922L589.869 499.845L592.033 499.413L594.456 499.153L596.014 496.903L597.139 494.134L599.389 494.047L601.639 492.663L603.889 492.576L606.485 493.615L608.389 495.432L610.552 496.903L613.062 496.297L615.571 496.124L616.61 498.72L615.918 501.317L613.841 502.701L611.764 504.259L610.293 506.422L612.716 507.461V510.23L614.879 511.095L617.302 510.576L619.639 510.057L621.023 512.999L623.446 514.211L625.61 515.163L627.427 516.72L628.725 518.971L630.11 521.22L631.668 523.211L633.571 524.596L635.735 525.461L638.158 525.201L639.716 527.365L641.619 528.922L640.494 531.345L638.85 533.336L639.283 536.105L637.379 537.663L634.783 537.922L632.793 536.624L630.629 536.365L630.283 539.047L629.764 541.73L628.033 544.067L626.302 546.23L624.139 547.269L621.456 547.701L620.071 550.038L617.389 550.557L615.225 551.076L614.273 554.278L613.235 556.788L610.293 558.432L607.783 558.865L605.619 558.519L603.629 559.99L601.119 559.73L598.956 560.595L596.879 562.326L597.485 565.009L597.398 568.124L597.052 570.807L596.187 568.124L593.85 568.471L591.86 569.769L589.523 569.336L587.273 569.682L587.879 572.278L589.869 573.836L592.033 574.788L593.071 577.297L590.908 578.595L590.216 581.278L585.543 582.576L586.148 579.894L585.975 577.211L584.158 578.769L584.764 581.624L583.985 584.394L581.821 582.576L579.658 581.538L577.668 579.461L575.331 578.249L573.168 578.682L574.466 576.432L573.6 573.836L572.302 571.413L571.091 573.749L568.754 573.057L566.937 571.326L564.687 571.413L562.869 572.97L562.61 569.942L561.139 567.865L560.446 564.836L561.398 561.98L563.562 561.115L565.725 559.817L563.648 560.942L561.485 561.201L559.235 562.24L556.898 565.009L558.456 566.999L559.754 569.249L560.966 571.932L558.802 572.711L560.879 573.749L561.398 576.605L562.35 579.028L564.254 580.586L562.177 582.057L564.168 583.269L562.696 585.259L560.1 585.951L557.591 583.874L558.023 581.105L556.033 579.807L553.956 578.769L553.783 576.086L552.052 578.249L549.456 579.115L546.427 577.644L544.61 579.288L542.1 578.249L543.312 580.672H543.398Z" fill="#2563EB" fill-opacity="0.1" stroke="#2563EB" stroke-opacity="0.42" stroke-width="0.865383" stroke-linejoin="round"/>
<path d="M340.724 784.279L342.195 786.355L340.984 788.606L342.109 791.029L343.407 793.625L344.272 790.942L345.83 792.932L343.84 794.49L344.013 797.259L342.369 799.423L341.244 802.019L340.205 804.702L338.128 805.74L336.917 808.077L335.792 811.019L334.147 812.923L333.801 815.692L331.984 817.423L329.647 817.596L327.311 818.375L324.715 817.682L322.984 819.586L321.08 821.23L318.83 821.75L316.407 822.615L314.157 823.481H311.734L309.484 822.961L307.147 824.173L305.676 826.25L303.945 828.154L301.695 829.106L299.619 827.894L297.455 827.981L295.205 828.327L292.782 828.586L290.532 829.019L288.282 830.144L285.859 830.404L283.522 829.798L281.013 828.846L278.59 828.932L276.686 827.721L274.609 828.759L272.359 829.452L270.109 829.365L267.859 829.279L265.176 828.586L263.619 830.577L261.888 832.307L261.801 835.163L259.638 834.99L257.734 833.346L256.003 831.615L254.186 830.057L252.369 828.327L249.859 827.548L247.782 825.73L246.224 823.394L244.58 820.971L244.753 817.769L245.186 815.086L245.099 812.231L247.09 810.327L248.994 808.163L251.157 806.692L252.542 804.355L254.705 803.663L256.263 801.673L257.561 799.25L259.032 797.086L260.936 795.702L263.359 794.231L264.051 791.634H266.561L268.811 791.029L271.32 790.163L273.224 788.779L275.388 789.384L277.378 788.259L279.715 787.654L281.965 787.048L283.782 785.577L286.378 784.971L288.369 783.5L290.619 783.932L292.869 783.846L295.119 782.807L297.455 782.375L299.705 782.461L301.436 780.817L304.292 780.557L306.542 779.432L308.792 778.654L311.042 779.519L313.205 778.913L315.455 778.048L317.705 777.442L320.301 777.702L322.465 777.356L324.715 776.23L326.878 777.442L329.301 777.096L331.292 778.394L332.763 781.336L335.099 782.634L338.042 781.942L340.551 783.154L340.724 784.279Z" fill="#2563EB" fill-opacity="0.1" stroke="#2563EB" stroke-opacity="0.42" stroke-width="0.865383" stroke-linejoin="round"/>
</svg>
