<svg width="18" height="18" viewBox="0 0 18 18" fill="none" xmlns="http://www.w3.org/2000/svg">
<g clip-path="url(#clip0_839_71)">
<path d="M12.75 15.75V14.25C12.75 13.4544 12.4339 12.6913 11.8713 12.1287C11.3087 11.5661 10.5456 11.25 9.75 11.25H3.75C2.95435 11.25 2.19129 11.5661 1.62868 12.1287C1.06607 12.6913 0.75 13.4544 0.75 14.25V15.75M17.25 15.75V14.25C17.2495 13.5853 17.0283 12.9396 16.621 12.4142C16.2138 11.8889 15.6436 11.5137 15 11.3475M12 2.3475C12.6453 2.51273 13.2173 2.88803 13.6257 3.41423C14.0342 3.94044 14.2559 4.58762 14.2559 5.25375C14.2559 5.91988 14.0342 6.56706 13.6257 7.09327C13.2173 7.61947 12.6453 7.99477 12 8.16M6.75 8.25C7.54565 8.25 8.30871 7.93393 8.87132 7.37132C9.43393 6.80871 9.75 6.04565 9.75 5.25C9.75 4.45435 9.43393 3.69129 8.87132 3.12868C8.30871 2.56607 7.54565 2.25 6.75 2.25C5.95435 2.25 5.19129 2.56607 4.62868 3.12868C4.06607 3.69129 3.75 4.45435 3.75 5.25C3.75 6.04565 4.06607 6.80871 4.62868 7.37132C5.19129 7.93393 5.95435 8.25 6.75 8.25Z" stroke="#5F6678" stroke-width="1.275" stroke-linecap="round" stroke-linejoin="round"/>
</g>
<defs>
<clipPath id="clip0_839_71">
<rect width="18" height="18" fill="white"/>
</clipPath>
</defs>
</svg>
